Simulation
nRows=42
nColumns=15
endheader
time  TH_x TH_y TH_z SC_y  SC_z  SC_x  AC_y  AC_z  AC_x  GH_y  GH_z  GH_yy  EL_x  PS_y
0.0  0.000000  0.000000  0.000000  -44.899465817856154  6.134256298269695  15.118601025396305  58.00106728566457  7.254584675595963  6.397135008076292  65.46047911508829  53.920566300223356  -66.58185422621773  23.753778732087728  120.000000
0.04499999999999999  0.000000  0.000000  0.000000  -44.41377017377376  7.943663104469329  14.433230044760816  57.40791617140925  8.716216045220166  8.574891575481542  64.58226667323443  56.62338954292595  -66.55689573816828  23.771651307935212  120.000000
0.08999999999999998  0.000000  0.000000  0.000000  -44.09546251247685  9.207726693123982  13.349175307004568  56.901000684119545  9.845001609737702  10.247064781320592  64.14911388172936  58.431644760371  -66.64714704709118  23.79376173964753  120.000000
0.13499999999999998  0.000000  0.000000  0.000000  -43.868606610565095  9.768770799366816  12.119677197464727  56.5061312957911  10.877571919037146  11.392811202580791  64.03234146603565  59.41785364102197  -66.82690243481275  23.777408959322038  120.000000
0.17999999999999997  0.000000  0.000000  0.000000  -43.702446463401316  9.831705361060077  10.865009981872085  56.213770233789845  11.909799900548572  12.064267719435302  64.14941917899732  59.74982445510655  -67.10477213478215  23.784680034594672  120.000000
0.22499999999999995  0.000000  0.000000  0.000000  -43.6128578887493  9.578099265897524  9.615883950057249  55.98455881492831  12.894851760846594  12.445947145879543  64.4358735972945  59.62815140394799  -67.51500607792218  23.828969945720324  120.000000
0.26999999999999996  0.000000  0.000000  0.000000  -43.56606243576258  9.17324887144142  8.381485215444282  55.802112712535774  13.79303489534616  12.654002204665872  64.77382382481579  59.243659915468896  -68.05009439808263  23.92877061151704  120.000000
0.31499999999999995  0.000000  0.000000  0.000000  -43.5438610275134  8.710861601008983  7.183288533645254  55.66741480162946  14.56929789606813  12.779680041283036  65.09886569950196  58.732814027544904  -68.66546408805686  24.057656329355684  120.000000
0.35999999999999993  0.000000  0.000000  0.000000  -43.51436038891114  8.242458659676622  6.027452486574651  55.5847086311414  15.197701636768105  12.87189005078316  65.3641520730185  58.184983560914425  -69.31028535923053  24.21509400166744  120.000000
0.4049999999999999  0.000000  0.000000  0.000000  -43.463841426417375  7.794836884801454  4.921251436702389  55.561456917256855  15.673972481448082  12.957870795470317  65.56388980534257  57.63991488577742  -69.92783801214807  24.378972598446424  120.000000
0.4499999999999999  0.000000  0.000000  0.000000  -43.375310449730954  7.3802101881931  3.8527742982588267  55.591384658736985  15.99639492637755  13.061485559380735  65.7084353741238  57.10459449617103  -70.47767423844435  24.544133837506095  120.000000
0.4949999999999999  0.000000  0.000000  0.000000  -43.24023667372455  7.000688968542271  2.8096907995286338  55.67178850091311  16.182854967662124  13.192323276834513  65.8217178556387  56.568274199582305  -70.92850165910521  24.694406042353428  120.000000
0.5399999999999999  0.000000  0.000000  0.000000  -43.05252620864022  6.6549555464160015  1.772092790971575  55.78866147620332  16.248140077555092  13.365185408192232  65.93525209902748  56.010416744073005  -71.26537039657602  24.83312652698815  120.000000
0.5849999999999999  0.000000  0.000000  0.000000  -42.812104795022265  6.3373919888741215  0.725939138907547  55.934595887640754  16.2166880427522  13.583406235006974  66.08020592202323  55.413722456051474  -71.48230143479697  24.964944898501656  120.000000
0.6299999999999999  0.000000  0.000000  0.000000  -42.522019951761024  6.044973465096787  -0.3397596159895906  56.096985000160835  16.10540519407929  13.854306789043235  66.28766051170112  54.763934916854865  -71.58257822098983  25.108132109970313  120.000000
0.6749999999999998  0.000000  0.000000  0.000000  -42.19068567495887  5.774791113286784  -1.426822795293043  56.27049967370459  15.931172821568317  14.178057152700447  66.58163790223604  54.05750565147263  -71.57337872335192  25.277488176128294  120.000000
0.7199999999999999  0.000000  0.000000  0.000000  -41.82892259889316  5.5262247183352295  -2.5304715098793267  56.45054728704522  15.70450426035092  14.553680005079652  66.97942683807993  53.299713465749846  -71.46599867748454  25.487523801299638  120.000000
0.7649999999999999  0.000000  0.000000  0.000000  -41.45365305591662  5.294808164058985  -3.636565491185205  56.63920712395977  15.435557284853985  14.974173572014308  67.48682442242826  52.505922007911856  -71.27335456952508  25.740587050619176  120.000000
0.8099999999999998  0.000000  0.000000  0.000000  -41.0865332960116  5.077211961183811  -4.723455720590952  56.8422398086468  15.133045832967424  15.426725214788023  68.09763311037543  51.69959946025962  -71.01060503504003  26.030949513797623  120.000000
0.8549999999999999  0.000000  0.000000  0.000000  -40.75051458241361  4.864859713291335  -5.763002101391196  57.06750798707946  14.806669143510724  15.89313580975152  68.792918400019  50.90853948807841  -70.69194722226413  26.34282903000417  120.000000
0.8999999999999998  0.000000  0.000000  0.000000  -40.46445775619811  4.6500814900968495  -6.726419453758464  57.31920849153661  14.465092479296853  16.353670723731813  69.54749486457038  50.161118759198224  -70.33261862385997  26.658810244962346  120.000000
0.9449999999999998  0.000000  0.000000  0.000000  -40.240609574633815  4.426904505025089  -7.587962710155207  57.59836210219441  14.116437605689926  16.78868133813546  70.33384131727658  49.48362910999167  -69.94808772323499  26.962808050404444  120.000000
0.9899999999999998  0.000000  0.000000  0.000000  -40.08090199607014  4.194407467368307  -8.327823576153287  57.899201385956246  13.766522391641223  17.180483009422158  71.12548100053797  48.897794293530154  -69.5565857191559  27.245552094285337  120.000000
1.0349999999999997  0.000000  0.000000  0.000000  -39.980164610066524  3.9569378225987033  -8.932778402180999  58.20934866917416  13.421295342316235  17.51559496434917  71.89648871620801  48.41750354903585  -69.17649574990934  27.50383888372667  120.000000
1.0799999999999998  0.000000  0.000000  0.000000  -39.9287863733529  3.722551405966333  -9.39785280426075  58.51119781144514  13.088020099135177  17.78557321505942  72.62319711448383  48.04825851349378  -68.8266156279558  27.740578181193364  120.000000
1.1249999999999998  0.000000  0.000000  0.000000  -39.9172780035632  3.5006670577682386  -9.725857465661097  58.78822815653822  12.776899284163381  17.98653280521251  73.28446814681072  47.787228395803936  -68.52281263426651  27.96081851226423  120.000000
1.1699999999999997  0.000000  0.000000  0.000000  -39.937880947512376  3.301022575771253  -9.92734211208781  59.02836845554449  12.498501666768531  18.11948045454529  73.86394739565034  47.62411359246984  -68.27734902990677  28.169984280359003  120.000000
1.2149999999999999  0.000000  0.000000  0.000000  -39.98359710340653  3.1316009655248584  -10.018623523948571  59.22702734586059  12.260262047997589  18.190694621633718  74.34716781443247  47.54075539119596  -68.0955697180979  28.372116928924804  120.000000
1.2599999999999998  0.000000  0.000000  0.000000  -40.04559824032471  2.997773385220212  -10.021566309134476  59.3854063330277  12.064450544606606  18.212559891649214  74.72000902247898  47.512093764386705  -67.97581625205585  28.570231684574317  120.000000
1.3049999999999997  0.000000  0.000000  0.000000  -40.11254716954828  2.9031587730583324  -9.96261379190373  59.50864760235341  11.909247929406439  18.203403120913887  74.9663295333311  47.50766695354844  -67.90967564799712  28.767652930514842  120.000000
1.3499999999999996  0.000000  0.000000  0.000000  -40.17070976045848  2.8497595748455122  -9.87168849209417  59.60159199061575  11.791682593856828  18.18389854224819  75.06966518977453  47.497215457619056  -67.88605330346134  28.968565970548205  120.000000
1.3949999999999998  0.000000  0.000000  0.000000  -40.206592881593636  2.8379949176438615  -9.778396483493779  59.66578388698186  11.71234037794474  18.172586608066066  75.01696257197031  47.456537744377535  -67.89524606947197  29.17452109955751  120.000000
1.4399999999999997  0.000000  0.000000  0.000000  -40.21133647816629  2.8676510645114766  -9.707975534947003  59.69654148110774  11.680742529781526  18.180857882121966  74.80588918069351  47.37590299936763  -67.93333242261545  29.375696889033343  120.000000
1.4849999999999997  0.000000  0.000000  0.000000  -40.183124202497936  2.9393791784544954  -9.675929622904327  59.68295741877807  11.718535741880489  18.209705495799806  74.44907443734793  47.2651187037894  -68.00374598034429  29.54176170072491  120.000000
1.5299999999999998  0.000000  0.000000  0.000000  -40.12822642432439  3.054224909735429  -9.685501695598047  59.60778170438636  11.856714590448918  18.249183371495945  73.97683853471261  47.15503151477185  -68.11720744144513  29.6193876429285  120.000000
1.5749999999999997  0.000000  0.000000  0.000000  -40.058732455147684  3.2139674744447055  -9.726706187926412  59.45083925312455  12.127728051345226  18.281859162446878  73.43270261703344  47.09157238579079  -68.28770781344872  29.540059531204733  120.000000
1.6199999999999997  0.000000  0.000000  0.000000  -39.98870710582763  3.4193975324165287  -9.778340124222186  59.193698984088215  12.554146220883545  18.287962244485254  72.86459309502035  47.12662923688238  -68.52466342169208  29.23583307820552  120.000000
1.6649999999999996  0.000000  0.000000  0.000000  -39.93196917337564  3.667484750727442  -9.810261612052287  58.8267282841156  13.138595404388813  18.252041759582983  72.31315244086207  47.30338807133592  -68.82289892706937  28.662323416331823  120.000000
1.7099999999999997  0.000000  0.000000  0.000000  -39.90192226321186  3.9499474742727254  -9.787616695658905  58.35465761879127  13.858280108491005  18.1669606892654  71.80283166699598  47.64499554696325  -69.1545180027746  27.821227904388987  120.000000
1.7549999999999997  0.000000  0.000000  0.000000  -39.910824259743706  4.254068002921797  -9.672105170400783  57.80260328006509  14.666988606570913  18.032727552999795  71.33652635661126  48.148371159034866  -69.46724122852612  26.768103280358837  120.000000
1.7999999999999996  0.000000  0.000000  0.000000  -39.97180318308002  4.565120442401803  -9.422273750942788  57.21524578999485  15.503279404355581  17.852561940461644  70.90017345770951  48.786904578135236  -69.69181768306164  25.59747627580962  120.000000
1.8449999999999998  0.000000  0.000000  0.000000  -40.10058794832595  4.872498876630822  -8.997780057704198  56.64912010210242  16.303716356671472  17.632249196588468  70.47506014662537  49.51643053653592  -69.75928511774846  24.41685427658555  120.000000
